<?xml version="1.0" encoding="utf-8"?>
<!-- Generator: Adobe Illustrator 27.5.0, SVG Export Plug-In . SVG Version: 6.00 Build 0)  -->
<svg version="1.1" xmlns="http://www.w3.org/2000/svg" xmlns:xlink="http://www.w3.org/1999/xlink" x="0px" y="0px"
	 viewBox="0 0 500 500" style="enable-background:new 0 0 500 500;" xml:space="preserve">
<g id="Shadows_1_">
	<g id="Shadow--inject-214">
		<ellipse id="path--inject-214" style="fill:#F5F5F5;" cx="250" cy="410.07" rx="193.89" ry="11.32"/>
	</g>
</g>
<g id="Background_Complete">
	<g>
		<path style="fill:#E6E6E6;" d="M238.395,341.53H45.305c-3.15-0.005-5.7-2.56-5.7-5.71V64.39c0.027-3.13,2.57-5.655,5.7-5.66
			h193.09c3.153,0,5.71,2.556,5.71,5.71l0,0v271.38C244.105,338.974,241.548,341.53,238.395,341.53z M45.305,58.93
			c-3.012,0.006-5.45,2.448-5.45,5.46v271.43c0,3.012,2.438,5.454,5.45,5.46h193.09c3.013-0.005,5.454-2.447,5.46-5.46V64.39
			c-0.006-3.013-2.447-5.455-5.46-5.46H45.305z"/>
		<path style="fill:#E6E6E6;" d="M454.705,341.53h-193.1c-3.151-0.005-5.705-2.559-5.71-5.71V64.39
			c0.033-3.132,2.578-5.655,5.71-5.66h193.1c3.126,0.011,5.663,2.534,5.69,5.66v271.43
			C460.395,338.966,457.851,341.519,454.705,341.53z M261.605,58.93c-3.013,0.006-5.455,2.447-5.46,5.46v271.43
			c0.005,3.013,2.447,5.454,5.46,5.46h193.1c3.013-0.005,5.454-2.447,5.46-5.46V64.39c-0.006-3.013-2.447-5.455-5.46-5.46H261.605z"
			/>
	</g>
	<g>
		<rect x="53.79" y="392.21" style="fill:#E0E0E0;" width="41.21" height="0.25"/>
		<rect x="137.67" y="390.21" style="fill:#E0E0E0;" width="41.33" height="0.25"/>
		<rect x="222.78" y="390.21" style="fill:#E0E0E0;" width="10" height="0.25"/>
		<rect x="86.58" y="398.75" style="fill:#E0E0E0;" width="46.25" height="0.25"/>
		<rect x="271.2" y="392.08" style="fill:#E0E0E0;" width="21.6" height="0.25"/>
		<rect x="301.7" y="392.08" style="fill:#E0E0E0;" width="27.93" height="0.25"/>
		<rect x="401.89" y="396.31" style="fill:#E0E0E0;" width="62.44" height="0.25"/>
	</g>
	<g>
		<rect x="364.83" y="114.225" style="fill:#E6E6E6;" width="47.61" height="33.27"/>
		<g>
			<rect x="364.83" y="114.225" style="fill:#F0F0F0;" width="21.47" height="33.27"/>
			<path style="opacity:0.4;fill:#E0E0E0;enable-background:new    ;" d="M375.548,118.735c3.916,0,7.09,3.174,7.09,7.09
				s-3.174,7.09-7.09,7.09c-3.916,0-7.09-3.174-7.09-7.09S371.632,118.735,375.548,118.735z"/>
			<path style="fill:#E0E0E0;" d="M379.008,139.655c0,1.911-1.549,3.46-3.46,3.46c-1.911,0-3.46-1.549-3.46-3.46
				c0-1.911,1.549-3.46,3.46-3.46h0C377.459,136.195,379.008,137.745,379.008,139.655z"/>
		</g>
		<circle style="fill:#FAFAFA;" cx="375.497" cy="126.307" r="2.017"/>
	</g>
	<g>
		<g>
			<g>
				<rect x="290.208" y="102.312" style="fill:#F0F0F0;" width="20.588" height="45.196"/>
			</g>
			<g>
				<rect x="310.235" y="102.312" style="fill:#E6E6E6;" width="27.317" height="45.196"/>
			</g>
			<g>
				<g>
					<path style="fill:#FFFFFF;" d="M300.427,116.663c1.575,0,2.852,1.277,2.852,2.852c0,1.575-1.277,2.851-2.852,2.851
						c-1.575,0-2.852-1.277-2.852-2.851C297.576,117.94,298.853,116.663,300.427,116.663z"/>
				</g>
				<g>
					<path style="fill:#FFFFFF;" d="M300.427,112.212c0.787,0,1.426,0.638,1.426,1.426s-0.638,1.426-1.426,1.426
						c-0.787,0-1.426-0.638-1.426-1.426S299.64,112.212,300.427,112.212z"/>
				</g>
				<g>
					<path style="fill:#FFFFFF;" d="M300.427,107.89c0.787,0,1.426,0.638,1.426,1.426s-0.638,1.426-1.426,1.426
						c-0.787,0-1.426-0.638-1.426-1.426S299.64,107.89,300.427,107.89z"/>
				</g>
			</g>
			<g>
				<rect x="290.669" y="127.662" style="fill:#E0E0E0;" width="46.404" height="0.713"/>
				<rect x="290.669" y="131.672" style="fill:#E0E0E0;" width="46.404" height="0.713"/>
				<rect x="290.669" y="135.682" style="fill:#E0E0E0;" width="46.404" height="0.713"/>
				<rect x="290.669" y="139.692" style="fill:#E0E0E0;" width="46.404" height="0.713"/>
				<rect x="290.669" y="143.702" style="fill:#E0E0E0;" width="46.404" height="0.713"/>
			</g>
			<g>
				<g>
					<rect x="298.957" y="128.88" style="fill:#E0E0E0;" width="1.96" height="1.96"/>
				</g>
			</g>
			<g>
				<g>
					<rect x="298.957" y="133.098" style="fill:#E0E0E0;" width="1.96" height="1.96"/>
				</g>
			</g>
			<g>
				<g>
					<rect x="298.957" y="136.9" style="fill:#E0E0E0;" width="1.96" height="1.96"/>
				</g>
			</g>
			<g>
				<g>
					<rect x="298.957" y="140.999" style="fill:#E0E0E0;" width="1.96" height="1.96"/>
				</g>
			</g>
			<g>
				<g>
					<rect x="298.957" y="144.981" style="fill:#E0E0E0;" width="1.96" height="1.96"/>
				</g>
			</g>
		</g>
		<g>
			<path style="fill:#E0E0E0;" d="M250.869,192.016h-1v-38.304c0-4.299,3.497-7.796,7.796-7.796h33.004v1h-33.004
				c-3.747,0-6.796,3.049-6.796,6.796V192.016z"/>
		</g>
		<g>
			<path style="fill:#E0E0E0;" d="M248.869,192.073h-1v-38.642c0-5.216,4.243-9.46,9.459-9.46h33.341v1h-33.341
				c-4.664,0-8.459,3.795-8.459,8.46V192.073z"/>
		</g>
	</g>
	<g>
		<rect x="108.061" y="96.002" style="fill:#E6E6E6;" width="31.31" height="33.33"/>
		<rect x="139.371" y="96.002" style="fill:#F5F5F5;" width="8.02" height="33.33"/>
		<rect x="99.851" y="90.862" style="fill:#E6E6E6;" width="23.52" height="38.47"/>
		<rect x="123.361" y="90.862" style="fill:#F5F5F5;" width="6.8" height="38.47"/>
		<rect x="96.611" y="96.002" style="fill:#EBEBEB;" width="19.83" height="33.33"/>
		<rect x="116.441" y="96.002" style="fill:#F5F5F5;" width="4.53" height="33.33"/>
		<rect x="74.201" y="101.642" style="fill:#E6E6E6;" width="26.01" height="27.69"/>
		<rect x="100.211" y="101.642" style="fill:#F5F5F5;" width="6.66" height="27.69"/>
		<rect x="67.381" y="97.372" style="fill:#E6E6E6;" width="19.54" height="31.96"/>
		<rect x="86.911" y="97.372" style="fill:#F5F5F5;" width="5.65" height="31.96"/>
		<rect x="62.181" y="101.642" style="fill:#E6E6E6;" width="18.98" height="27.69"/>
		<rect x="81.171" y="101.642" style="fill:#F0F0F0;" width="3.76" height="27.69"/>
	</g>
	<g>
		
			<rect x="39.998" y="129.314" transform="matrix(-1 -1.224647e-16 1.224647e-16 -1 283.996 268.2745)" style="fill:#E6E6E6;" width="204" height="9.646"/>
		<g>
			<polygon style="fill:#E0E0E0;" points="76.606,139.188 87.891,139.188 79.671,151.6 76.606,151.6 			"/>
			<rect x="74.98" y="139.188" style="fill:#E0E0E0;" width="1.625" height="12.412"/>
		</g>
		<g>
			<polygon style="fill:#E0E0E0;" points="203.314,139.188 214.6,139.188 206.379,151.6 203.314,151.6 			"/>
			<rect x="201.688" y="139.188" style="fill:#E0E0E0;" width="1.626" height="12.412"/>
		</g>
	</g>
	<g>
		<rect x="256.234" y="147.508" style="fill:#E6E6E6;" width="204" height="9.646"/>
		<g>
			<polygon style="fill:#E0E0E0;" points="423.627,169.794 420.562,169.794 412.341,157.382 423.627,157.382 			"/>
			<rect x="423.627" y="157.382" style="fill:#E0E0E0;" width="1.625" height="12.412"/>
		</g>
		<g>
			<polygon style="fill:#E0E0E0;" points="296.918,169.794 293.853,169.794 285.633,157.382 296.918,157.382 			"/>
			<rect x="296.918" y="157.382" style="fill:#E0E0E0;" width="1.626" height="12.412"/>
		</g>
	</g>
	<g>
		<g>
			<path style="fill:#F0F0F0;" d="M197.45,109.89c0-1.47-0.216-2.892-0.625-4.228l3.71-3.263l-2.336-4.046l-4.682,1.583
				c-1.937-2.068-4.469-3.569-7.323-4.232l-0.972-4.843h-4.671l-0.969,4.843c-2.854,0.663-5.389,2.164-7.326,4.232l-4.682-1.583
				l-2.336,4.046l3.709,3.263c-0.405,1.336-0.625,2.758-0.625,4.228c0,1.474,0.22,2.892,0.625,4.232l-3.709,3.26l2.336,4.046
				l4.682-1.583c1.937,2.068,4.472,3.569,7.326,4.235l0.969,4.843h4.671l0.972-4.843c2.854-0.666,5.386-2.167,7.323-4.235
				l4.682,1.583l2.336-4.046l-3.71-3.26C197.234,112.782,197.45,111.364,197.45,109.89z M182.887,117.752
				c-4.18,0-7.567-3.39-7.567-7.57s3.387-7.57,7.567-7.57s7.57,3.39,7.57,7.57S187.067,117.752,182.887,117.752z"/>
		</g>
		<g>
			<path style="fill:#F0F0F0;" d="M222.713,112.337c-0.505-0.826-1.116-1.55-1.805-2.159l0.961-3.108l-2.702-1.469l-2.085,2.498
				c-1.799-0.495-3.736-0.468-5.567,0.141l-2.211-2.385l-2.623,1.606l1.121,3.052c-1.375,1.354-2.282,3.068-2.659,4.895l-3.173,0.72
				l0.079,3.075l3.205,0.557c0.232,0.89,0.597,1.764,1.103,2.589c0.507,0.827,1.118,1.549,1.806,2.161l-0.962,3.106l2.702,1.469
				l2.085-2.499c1.799,0.495,3.738,0.467,5.57-0.14l2.209,2.386l2.623-1.606l-1.119-3.054c1.374-1.355,2.279-3.068,2.656-4.896
				l3.173-0.72l-0.08-3.075l-3.204-0.555C223.586,114.035,223.22,113.164,222.713,112.337z M217.238,121.758
				c-2.347,1.437-5.414,0.698-6.851-1.65c-1.437-2.347-0.701-5.415,1.646-6.852c2.347-1.437,5.416-0.699,6.853,1.648
				C220.324,117.252,219.585,120.321,217.238,121.758z"/>
		</g>
	</g>
</g>
<g id="Background_Simple_1_" style="display:none;">
	<g id="Layer_8" style="display:inline;">
		<g>
			<path style="fill:#407BFF;" d="M385.341,58.049c-24.603-18.466-61.008-13.588-90.141-3.709
				c-29.133,9.879-54.335,30.892-69.291,57.774c-8.752,15.73-14.308,33.618-26.615,46.755c-18.914,20.19-52.901,23.956-75.777,8.397
				c-11.964-8.137-23.453-21.431-37.649-18.64c-8.04,1.581-14.275,8.416-17.212,16.065c-2.938,7.649-3.093,16.059-2.828,24.249
				c0.723,22.371,4.381,44.875,13.269,65.417c8.888,20.542,23.276,39.073,42.423,50.665c22.694,13.74,51,16.89,76.857,10.954
				c25.857-5.936,49.287-20.475,68.07-39.21c14.817-14.778,26.875-32.074,41.005-47.51c14.13-15.436,31.063-29.371,51.33-34.587
				c14.389-3.703,29.552-2.786,44.23-5.096c14.678-2.31,30.096-9.034,36.415-22.482c5.508-11.722,2.771-25.606-1.534-37.821
				C427.3,99.217,410.828,77.178,385.341,58.049z"/>
			<path style="opacity:0.8;fill:#FFFFFF;" d="M385.341,58.049c-24.603-18.466-61.008-13.588-90.141-3.709
				c-29.133,9.879-54.335,30.892-69.291,57.774c-8.752,15.73-14.308,33.618-26.615,46.755c-18.914,20.19-52.901,23.956-75.777,8.397
				c-11.964-8.137-23.453-21.431-37.649-18.64c-8.04,1.581-14.275,8.416-17.212,16.065c-2.938,7.649-3.093,16.059-2.828,24.249
				c0.723,22.371,4.381,44.875,13.269,65.417c8.888,20.542,23.276,39.073,42.423,50.665c22.694,13.74,51,16.89,76.857,10.954
				c25.857-5.936,49.287-20.475,68.07-39.21c14.817-14.778,26.875-32.074,41.005-47.51c14.13-15.436,31.063-29.371,51.33-34.587
				c14.389-3.703,29.552-2.786,44.23-5.096c14.678-2.31,30.096-9.034,36.415-22.482c5.508-11.722,2.771-25.606-1.534-37.821
				C427.3,99.217,410.828,77.178,385.341,58.049z"/>
		</g>
	</g>
</g>
<g id="Desk">
	<g>
		<g id="Group">
			<rect x="46.559" y="273.12" style="fill:#407BFF;" width="407.619" height="5.129"/>
			<polygon style="fill:#407BFF;" points="70.839,276.8 70.839,399.14 74.019,399.14 78.019,276.8 			"/>
			<g>
				<polygon style="fill:#407BFF;" points="108.379,280.8 108.379,394.14 111.559,394.14 115.559,280.8 				"/>
				<polygon style="opacity:0.5;" points="108.379,280.8 108.379,394.14 111.559,394.14 115.559,280.8 				"/>
			</g>
			<polygon style="fill:#407BFF;" points="431.345,276.8 431.345,399.14 428.175,399.14 424.165,276.8 			"/>
			<g>
				<polygon style="fill:#407BFF;" points="393.815,280.8 393.815,394.14 390.635,394.14 386.635,280.8 				"/>
				<polygon style="opacity:0.5;" points="393.815,280.8 393.815,394.14 390.635,394.14 386.635,280.8 				"/>
			</g>
			<g>
				<polygon style="fill:#407BFF;" points="438.596,283.739 63.339,283.739 55.039,278.25 446.896,278.25 				"/>
				<polygon style="opacity:0.5;" points="438.596,283.739 63.339,283.739 55.039,278.25 446.896,278.25 				"/>
			</g>
		</g>
	</g>
</g>
<g id="Beverages">
	<g>
		<path style="fill:#407BFF;" d="M73.35,257.394v3.957c0,0.667,0.26,1.293,0.73,1.766l3.174,3.173
			c0.29,0.291,0.644,0.49,1.027,0.608c1.295,2.783,4.108,4.717,7.38,4.717h1.188c4.498,0,8.144-3.646,8.144-8.143v-9.332H77.517
			v0.757h-1.67C74.47,254.896,73.35,256.017,73.35,257.394z M75.35,257.394c0-0.274,0.223-0.498,0.497-0.498h1.67v6.575
			c0,0.09,0.01,0.177,0.013,0.266l-2.035-2.035c-0.092-0.093-0.145-0.221-0.145-0.352V257.394z"/>
		<path style="opacity:0.5;fill:#FFFFFF;" d="M73.35,257.394v3.957c0,0.667,0.26,1.293,0.73,1.766l3.174,3.173
			c0.29,0.291,0.644,0.49,1.027,0.608c1.295,2.783,4.108,4.717,7.38,4.717h1.188c4.498,0,8.144-3.646,8.144-8.143v-9.332H77.517
			v0.757h-1.67C74.47,254.896,73.35,256.017,73.35,257.394z M75.35,257.394c0-0.274,0.223-0.498,0.497-0.498h1.67v6.575
			c0,0.09,0.01,0.177,0.013,0.266l-2.035-2.035c-0.092-0.093-0.145-0.221-0.145-0.352V257.394z"/>
		<g>
			<path style="fill:#407BFF;" d="M99.141,272.951H74.002c-1.635,0-2.96-1.48-2.96-1.48h31.059
				C102.101,271.471,100.776,272.951,99.141,272.951z"/>
			<path style="opacity:0.5;fill:#FFFFFF;" d="M99.141,272.951H74.002c-1.635,0-2.96-1.48-2.96-1.48h31.059
				C102.101,271.471,100.776,272.951,99.141,272.951z"/>
		</g>
	</g>
	<g>
		<g>
			<g>
				<path style="fill:#407BFF;" d="M437.364,260.76c-0.131-3.969-3.152-4.942-7.098-5.39v-1.45
					c-0.007-0.348-0.294-0.625-0.642-0.618c-0.004,0-0.009,0-0.013,0h-13.616c-0.355-0.014-0.654,0.262-0.668,0.617
					c0,0,0,0.001,0,0.001v18.911h14.939v-2.068C434.219,270.32,437.244,264.736,437.364,260.76z M430.266,268.318v-10.502
					c2.9,0.427,4.904,0.824,4.477,3.724C434.401,263.857,432.582,267.976,430.266,268.318z"/>
			</g>
		</g>
		<g style="opacity:0.5;">
			<path style="fill:#FFFFFF;" d="M437.364,260.76c-0.131-3.969-3.152-4.942-7.098-5.39v-1.45c-0.007-0.348-0.294-0.625-0.642-0.618
				c-0.004,0-0.009,0-0.013,0h-13.616c-0.355-0.014-0.654,0.262-0.668,0.617c0,0,0,0.001,0,0.001v18.911h14.939v-2.068
				C434.219,270.32,437.244,264.736,437.364,260.76z M430.266,268.318v-10.502c2.9,0.427,4.904,0.824,4.477,3.724
				C434.401,263.857,432.582,267.976,430.266,268.318z"/>
		</g>
	</g>
</g>
<g id="PC">
	<g>
		<g>
			<g>
				<rect x="244.105" y="248.731" style="fill:#407BFF;" width="11.79" height="23.952"/>
				<rect x="244.105" y="248.731" style="opacity:0.5;fill:#FFFFFF;" width="11.79" height="23.952"/>
			</g>
			<g>
				<polygon style="fill:#407BFF;" points="261.218,273.112 238.881,273.112 244.329,268.316 255.77,268.316 				"/>
				<polygon style="opacity:0.5;fill:#FFFFFF;" points="261.218,273.112 238.881,273.112 244.329,268.316 255.77,268.316 				"/>
			</g>
		</g>
		<g>
			<g>
				<g>
					<polygon style="fill:#407BFF;" points="310.329,265.357 254.489,265.357 264.579,273.141 320.409,273.141 					"/>
					<polygon style="opacity:0.4;fill:#FFFFFF;" points="310.329,265.357 254.489,265.357 264.579,273.141 320.409,273.141 					"/>
				</g>
			</g>
			<g>
				<polygon style="fill:#407BFF;" points="255.779,273.141 254.489,265.357 264.579,273.141 				"/>
				<polygon style="opacity:0.5;" points="255.779,273.141 254.489,265.357 264.579,273.141 				"/>
			</g>
		</g>
		<g>
			<path style="fill:#407BFF;" d="M198.896,192.044h101.635c1.065,0,1.928,0.863,1.928,1.928v62.325
				c0,1.065-0.863,1.928-1.928,1.928H198.896c-1.065,0-1.928-0.863-1.928-1.928v-62.325
				C196.968,192.907,197.831,192.044,198.896,192.044z"/>
			<rect x="200.8" y="196.179" style="opacity:0.5;" width="97.721" height="57.674"/>
		</g>
		<g>
			<g>
				<rect x="246.105" y="208.042" style="opacity:0.4;" width="49.311" height="33.948"/>
				<rect x="246.105" y="208.042" style="fill:#407BFF;" width="49.311" height="3.11"/>
			</g>
			<g>
				<path style="fill:#FFFFFF;" d="M255.14,226.817l8.062,4.468c0.404,0.227,0.674,0.43,0.807,0.607c0.133,0.178,0.2,0.405,0.2,0.68
					c0,0.348-0.126,0.65-0.376,0.905c-0.251,0.255-0.543,0.382-0.874,0.382c-0.219,0-0.546-0.121-0.983-0.364l-10.4-5.784
					c-0.701-0.39-0.701-1.398,0-1.788l10.4-5.784c0.437-0.235,0.76-0.352,0.971-0.352c0.34,0,0.635,0.126,0.887,0.377
					c0.251,0.251,0.376,0.55,0.376,0.898c0,0.275-0.067,0.502-0.2,0.68c-0.134,0.178-0.403,0.38-0.807,0.607L255.14,226.817z"/>
				<path style="fill:#FFFFFF;" d="M275.883,218.488l-7.977,17.192c-0.203,0.429-0.385,0.708-0.547,0.838
					c-0.211,0.17-0.465,0.255-0.765,0.255c-0.34,0-0.633-0.121-0.88-0.365c-0.247-0.243-0.37-0.518-0.37-0.825
					c0-0.218,0.097-0.538,0.291-0.959l8.001-17.179c0.202-0.429,0.38-0.708,0.534-0.838c0.219-0.17,0.474-0.255,0.765-0.255
					c0.34,0,0.631,0.12,0.874,0.358c0.243,0.239,0.365,0.512,0.365,0.82C276.175,217.748,276.078,218.068,275.883,218.488z"/>
				<path style="fill:#FFFFFF;" d="M285.914,226.817l-8.062-4.468c-0.405-0.226-0.674-0.429-0.807-0.607
					c-0.134-0.178-0.2-0.405-0.2-0.68c0-0.348,0.125-0.648,0.376-0.898c0.251-0.251,0.546-0.377,0.886-0.377
					c0.211,0,0.535,0.117,0.971,0.352l10.4,5.784c0.701,0.39,0.701,1.398,0,1.788l-10.4,5.784c-0.437,0.243-0.761,0.364-0.971,0.364
					c-0.344,0-0.643-0.129-0.895-0.385c-0.238-0.242-0.367-0.562-0.367-0.902c0-0.275,0.067-0.501,0.2-0.679
					c0.134-0.178,0.402-0.381,0.807-0.607L285.914,226.817z"/>
			</g>
		</g>
		<g>
			<g>
				<rect x="204.806" y="201.503" style="fill:#FFFFFF;" width="3.338" height="3.338"/>
				<rect x="204.806" y="210.145" style="fill:#FFFFFF;" width="3.338" height="3.338"/>
				<rect x="204.806" y="218.787" style="fill:#FFFFFF;" width="3.338" height="3.338"/>
				<rect x="204.806" y="227.429" style="fill:#FFFFFF;" width="3.338" height="3.338"/>
				<rect x="204.806" y="236.071" style="fill:#FFFFFF;" width="3.338" height="3.338"/>
				<rect x="204.806" y="244.713" style="fill:#FFFFFF;" width="3.338" height="3.338"/>
			</g>
			<g>
				<rect x="211.316" y="202.255" style="fill:#FFFFFF;" width="13.308" height="1"/>
			</g>
			<g>
				<rect x="214.418" y="210.92" style="fill:#FFFFFF;" width="4.74" height="1"/>
			</g>
			<g>
				<rect x="235.049" y="220.64" style="fill:#FFFFFF;" width="4.74" height="1"/>
			</g>
			<g>
				<rect x="214.418" y="228.354" style="fill:#FFFFFF;" width="4.74" height="1"/>
			</g>
			<g>
				<rect x="221.254" y="228.354" style="fill:#FFFFFF;" width="4.74" height="1"/>
			</g>
			<g>
				<rect x="221.254" y="220.64" style="fill:#FFFFFF;" width="12.112" height="1"/>
			</g>
			<g>
				<rect x="228.31" y="228.354" style="fill:#FFFFFF;" width="7.975" height="1"/>
			</g>
			<g>
				<rect x="228.282" y="246.882" style="fill:#FFFFFF;" width="4.74" height="1"/>
			</g>
			<g>
				<rect x="235.117" y="246.882" style="fill:#FFFFFF;" width="4.74" height="1"/>
			</g>
			<g>
				<rect x="242.174" y="246.882" style="fill:#FFFFFF;" width="2.648" height="1"/>
			</g>
			<g>
				<rect x="221.534" y="210.92" style="fill:#FFFFFF;" width="14.75" height="1"/>
			</g>
			<g>
				<rect x="221.254" y="237.38" style="fill:#FFFFFF;" width="4.74" height="1"/>
			</g>
			<g>
				<rect x="227.578" y="237.38" style="fill:#FFFFFF;" width="2.74" height="1"/>
			</g>
			<g>
				<rect x="232.414" y="237.38" style="fill:#FFFFFF;" width="7.74" height="1"/>
			</g>
		</g>
	</g>
</g>
<g id="Speech_Code">
	<g>
		<g>
			<g>
				<path style="fill:#407BFF;" d="M241.436,164.503c-0.244,12.1-12.82,22.244-28.088,22.648c-4.684,0.157-9.316-0.701-13.681-2.534
					c-1.534,3.801-4.777,7.061-14.07,8.521c9.697-7.489,4.393-13.823,2.182-19.398l0,0c-1.125-2.33-1.7-5.017-1.667-7.779
					c0.244-12.107,12.82-22.244,28.088-22.648C229.478,142.876,241.68,152.403,241.436,164.503z"/>
			</g>
		</g>
		<g>
			<g>
				<rect x="200.791" y="151.834" style="fill:#FFFFFF;" width="13.308" height="1"/>
			</g>
			<g>
				<rect x="203.892" y="160.499" style="fill:#FFFFFF;" width="4.74" height="1"/>
			</g>
			<g>
				<rect x="224.523" y="170.218" style="fill:#FFFFFF;" width="4.74" height="1"/>
			</g>
			<g>
				<rect x="203.892" y="177.933" style="fill:#FFFFFF;" width="4.74" height="1"/>
			</g>
			<g>
				<rect x="210.728" y="177.933" style="fill:#FFFFFF;" width="4.74" height="1"/>
			</g>
			<g>
				<rect x="210.728" y="170.218" style="fill:#FFFFFF;" width="12.112" height="1"/>
			</g>
			<g>
				<rect x="217.784" y="177.933" style="fill:#FFFFFF;" width="7.975" height="1"/>
			</g>
			<g>
				<rect x="211.008" y="160.499" style="fill:#FFFFFF;" width="14.75" height="1"/>
			</g>
		</g>
	</g>
</g>
<g id="Character_2">
	<g>
		<g>
			<g>
				<g>
					<g>
						<polygon style="fill:#7F3E3B;" points="299.167,393.749 291.877,391.569 293.577,373.699 300.867,375.879 						"/>
						<polygon style="opacity:0.2;enable-background:new    ;" points="301.468,371.842 294.178,369.672 293.228,379.682 
							300.598,381.052 						"/>
					</g>
					<path style="fill:#407BFF;" d="M342.317,283.379c0,0-50.13,4.23-48.9,26c1.009,17.823,3.65,12.978-1.54,65.966l12.611,0.696
						c0,0,12.829-43.342,11.099-60.562c14.13,0,46.48,1.24,51.18-11.51c2.334-6.474,3.469-13.319,3.35-20.2L342.317,283.379z"/>
				</g>
				<polygon style="fill:#263238;" points="306.494,378.481 290.014,375.661 290.284,368.371 307.344,372.161 				"/>
			</g>
			<g>
				<path style="fill:#263238;" d="M291.127,388.57l8.42,1.665c0.296,0.043,0.509,0.358,0.48,0.709l-0.7,7.961
					c-0.128,0.858-0.811,1.439-1.54,1.311c-2.92-0.638-4.3-1.11-8-1.842c-2.28-0.449-7.49-1.547-10.66-1.901
					c-3.17-0.354-2.79-4.063-1.42-4.252c6.16-0.815,9.66-1.807,12.05-3.354C290.173,388.59,290.655,388.487,291.127,388.57z"/>
				<g>
					<path style="fill:#407BFF;" d="M287.349,390.013c0.663,0.09,1.333,0.11,2,0.06c0.068-0.001,0.129-0.045,0.15-0.11
						c0.034-0.059,0.034-0.131,0-0.19c-0.21-0.21-2.1-2-3.07-1.8c-0.228,0.039-0.416,0.201-0.49,0.42c-0.16,0.32-0.137,0.701,0.06,1
						C286.358,389.758,286.839,389.979,287.349,390.013z M288.959,389.743c-1.39,0-2.37-0.16-2.66-0.57
						c-0.116-0.197-0.116-0.443,0-0.64c0.032-0.109,0.12-0.193,0.23-0.22C287.039,388.203,288.179,389.043,288.959,389.743z"/>
					<path style="fill:#407BFF;" d="M289.359,390.073c0,0,0.05,0,0.08,0c0.058-0.022,0.102-0.07,0.12-0.13
						c0-0.09,0.55-2.22-0.09-3.07c-0.158-0.231-0.42-0.37-0.7-0.37c-0.308-0.044-0.607,0.13-0.72,0.42
						c-0.31,0.79,0.55,2.54,1.22,3.11C289.293,390.058,289.325,390.072,289.359,390.073z M288.839,386.863
						c0.142,0.023,0.268,0.102,0.35,0.22c0.293,0.789,0.325,1.652,0.09,2.46c-0.606-0.685-0.928-1.576-0.9-2.49
						c0-0.1,0.11-0.21,0.37-0.2L288.839,386.863z"/>
				</g>
			</g>
			<g>
				<g>
					<polygon style="fill:#7F3E3B;" points="266.667,396.529 259.727,393.409 264.527,376.289 271.467,379.409 					"/>
					<polygon style="opacity:0.2;enable-background:new    ;" points="272.639,375.003 265.699,371.883 263.229,380.713 
						270.169,383.833 					"/>
				</g>
				<g>
					<path style="fill:#407BFF;" d="M327.397,283.379c-0.33,0-56.2,5.75-56.27,24.7c-0.12,31.34-9.07,67.266-9.07,67.266
						l11.042,5.47c0,0,19.228-38.946,18.938-63.376c15.37-4.41,55.13,3,59.83-9.74c3.85-10.42,1.77-24.32,1.77-24.32
						L327.397,283.379z"/>
					<polygon style="fill:#263238;" points="274.864,382.401 260.064,375.741 261.254,369.681 276.864,375.071 					"/>
				</g>
			</g>
			<g>
				<path style="fill:#263238;" d="M260.417,387.655l8.44,1.753c0.292,0.054,0.5,0.398,0.47,0.779l-0.66,8.752
					c-0.113,0.95-0.797,1.601-1.529,1.455c0,0-0.001,0-0.001,0c-2.92-0.675-4.3-1.195-8-1.961c-2.28-0.467-8.49-1.974-11.62-2.792
					c-3.13-0.818-2.43-4.805-1-4.831c6.19-0.091,10.2-1.104,12.58-2.831C259.497,387.686,259.961,387.572,260.417,387.655z"/>
				<g>
					<path style="fill:#407BFF;" d="M256.951,389.545c0.588-0.319,1.139-0.7,1.647-1.136c0.056-0.046,0.08-0.121,0.059-0.191
						c-0.021-0.064-0.079-0.11-0.146-0.116c-0.293-0.046-2.875-0.382-3.544,0.364c-0.15,0.173-0.201,0.411-0.135,0.63
						c0.058,0.353,0.301,0.648,0.637,0.773C255.985,389.951,256.515,389.835,256.951,389.545z M258.08,388.378
						c-1.087,0.852-1.997,1.267-2.475,1.12c-0.214-0.093-0.36-0.294-0.382-0.526c-0.038-0.105-0.014-0.223,0.062-0.305
						C255.643,388.308,257.043,388.278,258.08,388.378z"/>
					<path style="fill:#407BFF;" d="M258.598,388.409l0.073-0.053c0.037-0.046,0.045-0.109,0.018-0.162
						c-0.053-0.073-0.875-2.121-1.893-2.432c-0.264-0.086-0.553-0.041-0.778,0.121c-0.274,0.151-0.41,0.469-0.329,0.771
						c0.214,0.821,1.941,1.717,2.826,1.777C258.544,388.43,258.572,388.423,258.598,388.409z M256.273,386.131
						c0.126-0.071,0.276-0.086,0.415-0.042c0.705,0.465,1.245,1.142,1.542,1.933c-0.898-0.189-1.689-0.716-2.209-1.472
						c-0.059-0.081-0.035-0.235,0.182-0.379L256.273,386.131z"/>
				</g>
			</g>
			<g>
				<path style="fill:#7F3E3B;" d="M346.377,222.916c1.47,3.16,2.68,6.2,3.89,9.36c1.21,3.16,2.28,6.32,3.27,9.56s1.85,6.56,2.54,10
					c0.753,3.574,1.128,7.217,1.12,10.87c-0.012,2.145-0.332,4.276-0.95,6.33c-0.389,1.258-0.951,2.456-1.67,3.56
					c-0.418,0.626-0.897,1.209-1.43,1.74l-0.43,0.42c-0.24,0.2-0.5,0.42-0.75,0.59c-0.422,0.289-0.87,0.537-1.34,0.74
					c-0.693,0.307-1.417,0.538-2.16,0.69c-0.584,0.124-1.175,0.211-1.77,0.26c-1.016,0.064-2.034,0.064-3.05,0
					c-1.804-0.086-3.601-0.286-5.38-0.6c-6.638-1.206-13.14-3.069-19.41-5.56l1.45-5.51c6.35,0.76,12.83,1.57,18.94,1.85
					c1.52,0,3,0.07,4.38,0c0.615-0.033,1.226-0.11,1.83-0.23c0.5-0.09,0.93-0.27,0.78-0.26c-0.099,0.034-0.194,0.081-0.28,0.14
					c-0.1,0.06-0.194,0.13-0.28,0.21l0,0c0,0,0.05-0.08,0.09-0.17c0.13-0.286,0.23-0.584,0.3-0.89c0.223-1.099,0.314-2.22,0.27-3.34
					c-0.147-2.864-0.572-5.708-1.27-8.49c-0.68-3-1.56-5.92-2.52-8.89c-0.96-2.97-2-5.94-3.14-8.9c-1.14-2.96-2.34-5.93-3.52-8.72
					L346.377,222.916z"/>
				<path style="fill:#7F3E3B;" d="M323.067,266.866l-6.63-3.73l-3.33,7.18c0,0,7.75,3.23,9.38,1.21L323.067,266.866z"/>
				<polygon style="fill:#7F3E3B;" points="311.067,264.496 308.037,269.296 313.107,270.266 316.437,263.086 				"/>
			</g>
			<g>
				<path style="fill:#7F3E3B;" d="M330.917,228.619c-1.27,3.19-2.6,6.24-4,9.33c-1.4,3.09-2.8,6.13-4.28,9.17
					c-2.979,6.19-6.318,12.2-10,18c-1,1.48-2,2.95-3.12,4.42c-0.56,0.74-1.18,1.47-1.84,2.22c-0.36,0.38-0.65,0.73-1.07,1.12
					l-0.6,0.58l-0.34,0.32c-0.952,0.815-2.072,1.409-3.28,1.74c-0.637,0.181-1.285,0.318-1.94,0.41
					c-1.068,0.129-2.145,0.173-3.22,0.13c-1.857-0.059-3.708-0.243-5.54-0.55c-6.78-1.197-13.421-3.08-19.82-5.62l1.46-5.52
					c6.47,0.78,13.08,1.61,19.3,1.87c1.467,0.057,2.935,0.036,4.4-0.06c0.59-0.046,1.175-0.14,1.75-0.28
					c0.188-0.044,0.369-0.111,0.54-0.2c0.06,0,0-0.07-0.27,0.1c-0.098,0.055-0.189,0.122-0.27,0.2c0,0,0.07-0.09,0.1-0.12l0.28-0.31
					c0.18-0.18,0.4-0.48,0.61-0.72c0.41-0.52,0.83-1.08,1.25-1.69c0.83-1.19,1.64-2.51,2.44-3.85c1.6-2.68,3.09-5.53,4.55-8.41
					c1.46-2.88,2.86-5.82,4.24-8.78c2.75-5.9,5.44-11.95,8-17.9L330.917,228.619z"/>
				<g>
					<path style="fill:#7F3E3B;" d="M276.167,265.809l-6.64-3.78l-3.33,7.18c0,0,7.75,3.24,9.39,1.22L276.167,265.809z"/>
					<polygon style="fill:#7F3E3B;" points="264.167,263.449 261.127,268.239 266.197,269.209 269.527,262.029 					"/>
				</g>
			</g>
			<g>
				<path style="fill:#7F3E3B;" d="M348.087,193.139l-4.24,4.91l-6.471,6.694c0.133,0.329,0.312,0.758,0.495,1.212
					c0.498,1.234,0.793,2.544,0.863,3.872c0.141,2.683-0.116,4.952-4.347,6.771c0,0-4.44,5.8,6.12,4.19s12.15-7.09,12.15-7.09
					C347.977,210.369,347.717,199.299,348.087,193.139z"/>
				<g>
					<path style="fill:#263238;" d="M326.557,187.599c0,0.66-0.33,1.22-0.77,1.24c-0.44,0.02-0.79-0.5-0.8-1.16
						c-0.01-0.66,0.34-1.22,0.77-1.24C326.187,186.419,326.547,186.939,326.557,187.599z"/>
					<path style="fill:#263238;" d="M328.767,185.139c-0.131-0.001-0.251-0.069-0.32-0.18c-0.524-0.861-1.418-1.43-2.42-1.54
						c-0.213-0.011-0.38-0.187-0.38-0.4c0.005-0.215,0.184-0.385,0.4-0.38c0,0,0,0,0,0l0,0c1.264,0.112,2.399,0.817,3.06,1.9
						c0.111,0.183,0.058,0.421-0.12,0.54C328.92,185.118,328.844,185.139,328.767,185.139z"/>
					<path style="fill:#630F0F;" d="M326.317,187.969c-0.536,1.801-1.31,3.523-2.3,5.12c0.831,0.469,1.829,0.542,2.72,0.2
						L326.317,187.969z"/>
					<path style="fill:#7F3E3B;" d="M348.687,184.269c-0.39,8.16-0.21,13-4.26,17.32c-3.945,4.348-10.668,4.674-15.015,0.729
						c-1.594-1.447-2.712-3.343-3.205-5.439c-1.84-7.23-0.88-19.36,7-23c5.315-2.633,11.758-0.459,14.391,4.857
						C348.448,180.45,348.823,182.36,348.687,184.269z"/>
				</g>
			</g>
			<g>
				<g>
					<path style="fill:#263238;" d="M352.39,186.99c-1.18,3.46-2.97,6.68-5.3,9.5l-10.62,2c0,0-8.39-3.51-6.15-9.29
						c-1.42-1.2-0.89-4.91,0.11-6.95c1.6,1.28,4.23,1.39,5.67-0.15c1.16,2.13,4.64,2.43,6.15,0.51c1.73,1.92,5.42,1.33,6.46-1.04
						c1.28,0.84,3.12,0.72,4.28-0.28c0.05-0.05,0.1-0.09,0.15-0.14C353.31,182.61,353.14,184.52,352.39,186.99z"/>
					<path style="opacity:0.1;fill:#FFFFFF;" d="M352.39,186.99c-1.18,3.46-2.97,6.68-5.3,9.5l-10.62,2c0,0-8.39-3.51-6.15-9.29
						c-1.42-1.2-0.89-4.91,0.11-6.95c1.6,1.28,4.23,1.39,5.67-0.15c1.16,2.13,4.64,2.43,6.15,0.51c1.73,1.92,5.42,1.33,6.46-1.04
						c1.28,0.84,3.12,0.72,4.28-0.28c0.05-0.05,0.1-0.09,0.15-0.14C353.31,182.61,353.14,184.52,352.39,186.99z"/>
				</g>
				<path style="fill:#263238;" d="M353.92,177.1c0.6,1.34,0.27,3.03-0.78,4.05c-0.05,0.05-0.1,0.09-0.15,0.14
					c-1.16,1-3,1.12-4.28,0.28c-1.04,2.37-4.73,2.96-6.46,1.04c-1.51,1.92-4.99,1.62-6.15-0.51c-1.44,1.54-4.07,1.43-5.67,0.15
					c-0.42-0.33-0.77-0.75-1-1.24c-0.06-0.11-0.1-0.22-0.14-0.33c-0.09,0.1-0.18,0.19-0.28,0.27c-0.97,0.8-2.5,0.92-3.56,0.21
					c-0.87-0.58-1.35-1.66-1.28-2.69c0.01-0.22,0.05-0.43,0.11-0.64c-0.08,0.15-0.18,0.29-0.3,0.41c-0.87,0.93-2.71,0.97-3.56-0.09
					c-1.06-1.31-0.46-3.49,0.99-4.36c0.58-0.34,1.22-0.5,1.88-0.5c1.02,0,2.06,0.37,2.87,0.99c-0.87-1.25-0.56-3.16,0.66-4.07
					c1.22-0.9,3.14-0.65,4.08,0.54c-0.13-1.42,0.34-2.27,1.07-2.71c1.38-0.8,3.68-0.11,4.8,1.23c0,0,1.54-3.72,4.2-3.3
					c0.58,0.08,3.31,1.29,3.24,2.27c0,0.07-0.02,0.13-0.05,0.19c0.04-0.08,0.08-0.15,0.13-0.22c0.52-0.82,1.57-1.23,2.56-1.21
					c1.07,0.01,2.09,0.42,3.08,0.82c2.07,0.85,4.27,1.8,5.47,3.69C356.59,173.41,356.07,176.5,353.92,177.1z"/>
				<path style="fill:#7F3E3B;" d="M335.007,189.959c-0.29,2.015-1.215,3.886-2.64,5.34c-1.81,1.73-3.35,0-3.37-2.63
					c0-2.38,0.89-6.15,3-6.85C334.107,185.118,335.397,187.369,335.007,189.959z"/>
			</g>
			<g>
				<path style="fill:#263238;" d="M366.987,216.539c-0.75-2-4.25-4-6.4-4h-1.42c-2.48,0-5.57,0.2-8.57,0.55
					c-5.716,0.632-11.392,1.587-17,2.86c-2.58,0.68-5.07,1.54-7.05,2.28c-2.52,1-4,1.67-4,1.67s2.762,18.385,4.19,36.646
					c0.795,10.162,0.466,20.254,0.72,27.194h42.66c1.47-8.34,1.238-15.613,1.358-30.673
					C371.545,244.025,370.077,224.769,366.987,216.539z"/>
				<path style="opacity:0.2;enable-background:new    ;" d="M325.815,246.338c0.32,3.83,0.65,7.85,1,11.87
					c5-7.3,7.77-27.271,7.77-27.271L325.815,246.338z"/>
			</g>
			<path style="fill:#263238;" d="M320.136,221.243c-6.11,3.44-12.099,21.044-12.099,21.044l13.989,10.556
				c5.34-5.05,13.15-17.58,14-22.59C337.396,222.563,329.926,215.763,320.136,221.243z"/>
		</g>
		<g>
			<g>
				<path style="fill:#263238;" d="M308.063,400.435c0,2.402-1.948,4.35-4.35,4.35c-2.402,0-4.35-1.948-4.35-4.35
					c0-2.402,1.948-4.35,4.35-4.35C306.115,396.086,308.063,398.033,308.063,400.435L308.063,400.435z"/>
				<path style="fill:#263238;" d="M372.953,400.435c0,2.402,1.948,4.35,4.35,4.35c2.402,0,4.35-1.948,4.35-4.35
					c0-2.402-1.948-4.35-4.35-4.35C374.901,396.086,372.953,398.033,372.953,400.435L372.953,400.435z"/>
				<path style="fill:#263238;" d="M336.274,399.045c0,2.402,1.947,4.35,4.35,4.35c2.402,0,4.35-1.948,4.35-4.35
					c0-2.402-1.948-4.35-4.35-4.35C338.222,394.695,336.274,396.642,336.274,399.045L336.274,399.045z"/>
			</g>
			<g>
				<path style="fill:#263238;" d="M339.273,393.676v-8.41h-12.46c-2.446,0.002-4.886,0.229-7.29,0.68l-23.201,4.509
					c-1.144,0.223-1.89,1.331-1.668,2.475c0.198,1.016,1.103,1.738,2.138,1.705L339.273,393.676z"/>
				<path style="fill:#263238;" d="M339.273,393.676v-8.41h12.47c2.446,0.001,4.886,0.228,7.29,0.68l26.075,4.169
					c1.144,0.223,1.89,1.331,1.667,2.475c-0.198,1.016-1.103,1.738-2.137,1.705L339.273,393.676z"/>
			</g>
			<g>
				<rect x="331.553" y="346.765" style="fill:#263238;" width="15.43" height="38.51"/>
				<rect x="333.773" y="328.845" style="fill:#263238;" width="11" height="17.91"/>
				<polygon style="opacity:0.5;enable-background:new    ;" points="333.773,334.105 344.773,336.875 344.773,328.845 
					333.773,328.845 				"/>
			</g>
			<g>
				<g>
					<rect x="298.123" y="288.326" style="fill:#263238;" width="5.59" height="23.85"/>
					<path style="fill:#407BFF;" d="M331.739,328.845V225.163c0-3.926,1.694-7.66,4.648-10.246l7.39-6.469
						c2.483-2.173,5.67-3.372,8.97-3.372h26.696l13.045,13.88v109.89H331.739z"/>
					<path style="fill:#407BFF;" d="M291.993,308.785h60.9v20.06h-70.82c-3.977,0.003-7.203-3.218-7.206-7.194
						c-0.001-1.293,0.346-2.563,1.006-3.676l0,0C279.243,312.277,285.373,308.783,291.993,308.785z"/>
					<path style="opacity:0.7;fill:#FFFFFF;" d="M392.49,218.96v109.89H282.07c-3.97,0-7.2-3.22-7.2-7.2c0-1.29,0.34-2.56,1-3.67
						c3.37-5.69,9.48-9.19,16.09-9.19h30.673c5.029,0,9.107-4.077,9.107-9.107V225.16c0-3.92,1.69-7.66,4.65-10.24l7.39-6.47
						c2.48-2.18,5.67-3.37,8.97-3.37h26.69L392.49,218.96z"/>
					<g>
						<path style="fill:#407BFF;" d="M340.624,328.845V225.163c0-3.926,1.694-7.66,4.648-10.246l7.39-6.469
							c2.483-2.173,5.67-3.372,8.97-3.372h20.807c3.758,0,7.349,1.553,9.923,4.292l5.317,5.657c2.373,2.525,3.695,5.86,3.695,9.326
							v94.114c0,5.733-4.648,10.381-10.381,10.381H340.624z"/>
						<path style="opacity:0.5;fill:#FFFFFF;" d="M340.624,328.845V225.163c0-3.926,1.694-7.66,4.648-10.246l7.39-6.469
							c2.483-2.173,5.67-3.372,8.97-3.372h20.807c3.758,0,7.349,1.553,9.923,4.292l5.317,5.657c2.373,2.525,3.695,5.86,3.695,9.326
							v94.114c0,5.733-4.648,10.381-10.381,10.381H340.624z"/>
					</g>
				</g>
				<g>
					<path style="fill:#407BFF;" d="M319.903,295.605c-12.303-4.295-25.697-4.295-38,0c-2.554,0.963-5.425-0.131-6.69-2.55l0,0
						c-1.14-2.41,0.39-5.53,3.49-6.62c14.367-5.02,30.013-5.02,44.38,0c3.1,1.08,4.63,4.21,3.49,6.62l0,0
						C325.306,295.461,322.451,296.552,319.903,295.605z"/>
					<path style="opacity:0.7;fill:#FFFFFF;" d="M319.903,295.605c-12.303-4.295-25.697-4.295-38,0
						c-2.554,0.963-5.425-0.131-6.69-2.55l0,0c-1.14-2.41,0.39-5.53,3.49-6.62c14.367-5.02,30.013-5.02,44.38,0
						c3.1,1.08,4.63,4.21,3.49,6.62l0,0C325.306,295.461,322.451,296.552,319.903,295.605z"/>
				</g>
			</g>
		</g>
	</g>
</g>
<g id="Character_1">
	<g>
		<g id="_x3C_Group_x3E_">
			<g>
				<g>
					<path style="fill:#263238;" d="M164.492,196.395c-0.21,0.59-0.06,1.18,0.33,1.31c0.39,0.13,0.87-0.23,1.07-0.82
						c0.2-0.59,0.06-1.19-0.32-1.32C165.192,195.435,164.702,195.795,164.492,196.395z"/>
					<path style="fill:#A02724;" d="M164.382,197.005c0.078,2.06,0.438,4.099,1.07,6.06c-1.019,0.292-2.115,0.124-3-0.46
						L164.382,197.005z"/>
					<path style="fill:#263238;" d="M163.532,192.375c0.075,0.025,0.155,0.025,0.23,0c0.89-0.297,1.868-0.148,2.63,0.4
						c0.165,0.12,0.397,0.083,0.517-0.082c0.106-0.147,0.091-0.349-0.037-0.478c-0.952-0.71-2.189-0.915-3.32-0.55
						c-0.193,0.066-0.296,0.277-0.23,0.47c0.037,0.108,0.122,0.193,0.23,0.23L163.532,192.375z"/>
					<path style="fill:#B55B52;" d="M142.562,198.575c1.12,5.69,2.23,16.12-1.75,19.92c0,0,1.56,5.77,12.14,5.77
						c11.63,0,5.56-5.77,5.56-5.77c-6.35-1.52-5.328-6.23-4.218-10.65L142.562,198.575z"/>
					<path style="fill:#B55B52;" d="M145.152,188.255c-2.08,7.44-3.68,11.69-1.3,16.7c3.57,7.55,16.045,8.529,19.45-0.113
						c2.59-7.957,5.15-16.367-0.97-21.737c-4.352-3.866-11.014-3.472-14.88,0.88C146.364,185.21,145.576,186.672,145.152,188.255z"
						/>
				</g>
				<path style="fill:#263238;" d="M137.088,190.728c-0.541-2.741-0.68-5.739,0.688-8.176c1.368-2.436,4.684-3.929,7.09-2.508
					c2.077-4.38,7.099-7.166,11.915-6.61c4.816,0.556,9.07,4.414,10.093,9.153c1.023,4.739-1.26,10.008-5.417,12.502
					c0.555-2.045,1.11-4.089,1.665-6.134c-0.477,2.825-2.024,5.457-4.261,7.248c0.321-2.044,0.643-4.088,0.964-6.132
					c-0.293,2.887-2.034,5.591-4.541,7.052c0.389-1.432,0.778-2.864,1.166-4.295c-0.171,0.629-1.727,5.131-2.256,5.747
					c-0.982,1.144-1.639,8.663-5.086,8.9C137.327,209.834,138.353,197.13,137.088,190.728z"/>
				<path style="fill:#B55B52;" d="M152.999,194.293c-0.2,1.908,0.228,3.828,1.22,5.47c1.33,2.14,3.28,1.32,4-0.87
					c0.64-2,0.71-5.45-1.14-6.84C155.229,190.663,153.279,191.993,152.999,194.293z"/>
			</g>
			<g>
				<path style="fill:#B55B52;" d="M124.813,266.371c-1.274-0.422-7.222-3.481-8.169-2.935c2.746-7.008,4.459-8.083,5.708-12.544
					c0.698-2.492,0.218-4.433-1.33-6.507c-1.757-2.355-2.373-3.548-5.297-3.257c-4.02,6.722-9.082,15.016-11.063,22.593
					c-0.667,2.552-1.15,4.487,0.368,6.644c1.338,1.901,3.812,2.667,6.127,2.874c5.574,0.5,13.842-0.525,13.737-3.834
					C124.827,267.319,124.813,266.371,124.813,266.371z"/>
				<g>
					<path style="fill:#B55B52;" d="M123.867,266.121l4.725-1.535l-0.42,8.532c0,0-3.783,0.135-5.798-2.395L123.867,266.121z"/>
					<polygon style="fill:#B55B52;" points="134.492,264.454 133.816,271.49 128.172,273.119 128.592,264.587 					"/>
				</g>
			</g>
			<g>
				<path style="fill:#B55B52;" d="M188.613,272.177c0,0-6.584-5.16-15.228-22.215c-1.282-2.385-2.508-4.789-3.68-7.212
					c-1.177-2.447-2.307-4.84-3.384-7.41l10.216-4.403c2.106,4.584,5.382,9.312,7.701,13.862c2.319,4.55,7.796,15.326,8.481,16.331
					c0.341,0.518,0.71,0.947,1.064,1.425l0.528,0.702l-6.591,7.619L188.613,272.177z"/>
				<g>
					<g>
						<path style="fill:#B55B52;" d="M197.259,239.024l-2.047-2.44l-0.946-3.653l6.171-5.733c0,0,1.494,1.838,2.537,3.818
							c0.159,0.303,0.228,0.645,0.214,0.987l-0.251,6.424L197.259,239.024z"/>
						<polygon style="fill:#B55B52;" points="194.356,228.975 198.974,224.777 200.434,227.228 194.266,232.931 						"/>
					</g>
					<path style="fill:#B55B52;" d="M197.35,237.238c0.161-0.687,0.304,0.66,0.757,0.118c1.365-1.633,3.346-1.811,4.525-0.039
						c1.179,1.773,0.171,19.618-1.714,25.208c-1.252,3.713-1.919,6.677-5.12,8.936c-1.324,0.934-2.878,1.639-4.498,1.614
						c-1.62-0.025-3.29-0.911-3.903-2.412c-0.951-2.332,2.579-10.73,3.842-13.44C195.193,248.731,195.455,245.298,197.35,237.238z"
						/>
				</g>
				<g>
					<g>
						<path style="fill:#407BFF;" d="M184.115,236.47c2.725-0.026,5.45-0.053,8.175-0.079c1.164-0.011,2.373-0.033,3.42-0.542
							c1.372-0.667,2.239-2.068,2.793-3.489c1.156-2.964,1.253-6.216,1.712-9.364c0.459-3.149,1.406-6.434,3.788-8.544
							c-4.341,0.576-12.016-0.785-15.349,2.772C186.886,219.11,183.781,236.473,184.115,236.47z"/>
						<path style="opacity:0.5;fill:#FFFFFF;" d="M184.115,236.47c2.725-0.026,5.45-0.053,8.175-0.079
							c1.164-0.011,2.373-0.033,3.42-0.542c1.372-0.667,2.239-2.068,2.793-3.489c1.156-2.964,1.253-6.216,1.712-9.364
							c0.459-3.149,1.406-6.434,3.788-8.544c-4.341,0.576-12.016-0.785-15.349,2.772C186.886,219.11,183.781,236.473,184.115,236.47
							z"/>
					</g>
					<path style="fill:#B55B52;" d="M198.096,224.333L198.096,224.333c-0.47,0.124-0.779,1.802-0.677,2.276l0.458,0.819l0.934,4.053
						l3.119-1.726l-2.812-4.99C198.915,224.405,198.495,224.228,198.096,224.333z"/>
				</g>
			</g>
			<path style="fill:#407BFF;" d="M127.626,219.923c-7.3,1.67-18.095,24.414-18.095,24.414l14.65,10
				c3.644-5.225,8.605-13.124,11.398-18.849C139.91,226.428,135.086,218.214,127.626,219.923z"/>
			<g>
				<path style="fill:#263238;" d="M138.292,220.475c-0.84-1.83-1.75-3.92,0.14-4.57c2.09-0.72,13.53-1.46,17.47-0.11
					c2.164,0.589,3.44,2.82,2.852,4.984c-0.007,0.026-0.014,0.051-0.022,0.077L138.292,220.475z"/>
				<path style="opacity:0.2;enable-background:new    ;" d="M132.14,233.058l-10.414,19.603l2.455,1.676
					c0,0,4.718-6.569,7.958-12.249V233.058z"/>
				<path style="fill:#407BFF;" d="M172.012,229.931c1.578,7.983-2.108,26.966-2.07,57.974h-41.63
					c-0.275-6.267,4.284-21.106-1.379-50.666c-0.184-0.958-0.267-17.146,0.693-17.315c4.031-0.708,8.099-1.189,12.185-1.439
					c5.895-0.345,11.805-0.345,17.7,0c2.405,0.242,6.202,1.737,8.594,2.598C169.841,222.427,171.242,226.036,172.012,229.931z"/>
				<path style="opacity:0.2;enable-background:new    ;" d="M160.995,237.88c1.086,6.572,5.395,15.253,9.689,20.345
					c0.17-3.73,0.543-7.625,0.533-10.615L160.995,237.88z"/>
			</g>
			<path style="fill:#407BFF;" d="M158.034,228.005c-1,7.37,13.5,26.19,13.5,26.19l14.59-10c0,0-4.05-10.37-10.86-17.17
				C167.504,219.225,159.174,219.985,158.034,228.005z"/>
			<g>
				<polygon style="fill:#B55B52;" points="205.722,391.125 213.502,391.125 215.272,373.095 207.492,373.095 				"/>
				<polygon style="opacity:0.2;enable-background:new    ;" points="215.153,374.194 214.253,383.484 206.463,383.484 
					207.373,374.194 				"/>
			</g>
			<g>
				<polygon style="fill:#B55B52;" points="175.032,391.125 182.812,391.125 186.722,373.095 178.942,373.095 				"/>
				<g style="opacity:0.2;">
					<polygon points="178.773,374.056 186.553,374.056 184.534,383.346 176.753,383.346 					"/>
				</g>
			</g>
			<path style="fill:#263238;" d="M213.942,387.629h-8.49c-0.322,0.002-0.6,0.292-0.67,0.699l-1.54,8.905
				c-0.144,0.786,0.232,1.574,0.84,1.76c0.092,0.028,0.186,0.041,0.28,0.039c3.06-0.065,7.49-0.298,11.34-0.298
				c4.51,0,8.4,0.311,13.68,0.311c3.2,0,4.09-4.181,2.75-4.556c-6.09-1.721-11.06-1.903-16.32-6.109
				C215.254,387.911,214.607,387.652,213.942,387.629z"/>
			<g>
				<path style="fill:#407BFF;" d="M220.122,390.525c1,0,2-0.14,2.29-0.59c0.169-0.243,0.169-0.566,0-0.81
					c-0.133-0.211-0.34-0.364-0.58-0.43c-1.3-0.35-4,1.2-4.13,1.27c-0.07,0.035-0.107,0.113-0.09,0.19
					c0.013,0.073,0.068,0.132,0.14,0.15C218.534,390.447,219.327,390.521,220.122,390.525z M221.362,389.015
					c0.116-0.016,0.234-0.016,0.35,0c0.153,0.029,0.285,0.124,0.36,0.26c0.13,0.23,0.09,0.34,0,0.4c-0.36,0.51-2.33,0.52-3.78,0.31
					C219.242,389.465,220.285,389.136,221.362,389.015z"/>
				<path style="fill:#407BFF;" d="M217.772,390.305h0.08c0.94-0.42,2.8-2.1,2.65-3c0-0.21-0.18-0.46-0.68-0.52
					c-0.363-0.031-0.723,0.084-1,0.32c-1,0.81-1.2,2.91-1.21,3c-0.007,0.065,0.019,0.129,0.07,0.17
					C217.709,390.291,217.74,390.301,217.772,390.305z M219.672,387.155h0.11c0.33,0,0.35,0.17,0.36,0.21
					c0.09,0.53-1.18,1.85-2.14,2.42c0.08-0.88,0.429-1.715,1-2.39C219.188,387.235,219.427,387.15,219.672,387.155z"/>
			</g>
			<path style="fill:#263238;" d="M183.362,387.629h-8.74c-0.32,0.003-0.594,0.294-0.66,0.699l-1.54,8.905
				c-0.133,0.804,0.263,1.595,0.885,1.766c0.084,0.023,0.17,0.034,0.255,0.033c3.05-0.065,4.54-0.298,8.38-0.298
				c2.37,0,5.4,0.311,8.67,0.311c3.27,0,3.69-4.181,2.35-4.556c-6-1.695-6.41-4.038-8.33-6.277
				C184.278,387.823,183.826,387.616,183.362,387.629z"/>
			<g>
				<path style="fill:#407BFF;" d="M187.932,391.515c0.667,0.087,1.34-0.096,1.87-0.51c0.189-0.259,0.189-0.611,0-0.87
					c-0.12-0.222-0.332-0.38-0.58-0.43c-1.14-0.27-3.29,1.2-3.38,1.26c-0.058,0.045-0.088,0.117-0.08,0.19
					c0.014,0.07,0.07,0.126,0.14,0.14C186.569,391.44,187.249,391.514,187.932,391.515z M188.932,390.035
					c0.073-0.01,0.147-0.01,0.22,0c0.145,0.021,0.271,0.11,0.34,0.24c0.17,0.31,0.07,0.43,0,0.48c-0.33,0.43-1.92,0.44-3.09,0.25
					c0.753-0.509,1.611-0.841,2.51-0.97H188.932z"/>
				<path style="fill:#407BFF;" d="M185.952,391.305h0.08c0.81-0.44,2.37-2.14,2.2-3c-0.053-0.284-0.301-0.49-0.59-0.49
					c-0.282-0.034-0.566,0.053-0.78,0.24c-0.9,0.74-1.09,3-1.1,3.08c-0.001,0.068,0.033,0.132,0.09,0.17
					C185.884,391.315,185.919,391.315,185.952,391.305z M187.522,388.155h0.08c0.24,0,0.26,0.14,0.27,0.19
					c0.1,0.51-0.9,1.8-1.7,2.41c0.054-0.888,0.374-1.738,0.92-2.44C187.211,388.212,187.364,388.155,187.522,388.155
					L187.522,388.155z"/>
			</g>
			<g>
				<g>
					<path style="fill:#263238;" d="M157.462,287.915c0,0,36.849,15.213,44.469,26.91c-4.531,29.739-12.66,63.62-12.66,63.62
						h-13.858c0,0-0.38-18.84,3.588-43.761c2-36.35-63.418,1.261-50.708-46.769H157.462z"/>
					<path style="opacity:0.3;" d="M182.938,312.985c-2.582,0.1-5.142,0.493-7.695,0.886c-2.692,0.414-5.384,0.828-8.077,1.242
						c4.164,3.496,8.563,6.712,13.158,9.619c2.788,1.764,5.822,3.465,9.12,3.48c3.695,0.017,13.736-4.746,12.071-9.669
						C199.827,313.552,187.139,312.822,182.938,312.985z"/>
				</g>
				<path style="fill:#263238;" d="M169.942,287.915c0,0,34.061,4.392,52.838,15.085c5.781,3.292,4.972,13.864,4.822,20.825
					c-0.413,18.678-4.005,37.148-10.62,54.62h-11.56c0,0,0.59-18.87,0.2-49.32c-0.12-9.13-18.55-12.14-36.56-13.2
					c-15.557-0.978-29.214-10.694-35.24-25.07l-1.23-2.94H169.942z"/>
				<path style="fill:#407BFF;" d="M219.812,375.345c0.06,0-0.75,5.47-0.75,5.47h-16l-0.44-4.88L219.812,375.345z"/>
				<path style="fill:#407BFF;" d="M190.612,375.345c0.06,0-1.47,5.47-1.47,5.47h-16l0.29-4.88L190.612,375.345z"/>
			</g>
			<g>
				<g>
					<polygon style="fill:#407BFF;" points="147.615,315.509 136.151,400.016 134.08,399.733 142.929,314.869 					"/>
					<polygon style="opacity:0.4;enable-background:new    ;" points="147.205,318.535 136.151,400.016 134.08,399.733 
						142.548,318.525 					"/>
				</g>
				<g>
					<path style="fill:#407BFF;" d="M187.942,318.535h-65c0-4.098,3.322-7.42,7.42-7.42l0,0h50.16
						C184.62,311.115,187.942,314.437,187.942,318.535L187.942,318.535z"/>
					<path style="opacity:0.7;fill:#FFFFFF;" d="M187.942,318.535h-65c0-4.098,3.322-7.42,7.42-7.42l0,0h50.16
						C184.62,311.115,187.942,314.437,187.942,318.535L187.942,318.535z"/>
				</g>
				<polygon style="fill:#407BFF;" points="125.952,318.525 116.152,400.685 118.252,400.685 130.682,318.525 				"/>
				<g>
					<polygon style="fill:#407BFF;" points="184.932,318.525 194.732,400.685 192.632,400.685 180.212,318.525 					"/>
					<polygon style="opacity:0.4;enable-background:new    ;" points="184.932,318.525 194.732,400.685 192.632,400.685 
						180.212,318.525 					"/>
				</g>
				<polygon style="fill:#407BFF;" points="171.822,318.525 172.012,400.685 169.922,400.685 167.092,318.525 				"/>
			</g>
		</g>
	</g>
</g>
</svg>
